<svg viewBox="0 0 20 20" fill="none" xmlns="http://www.w3.org/2000/svg">
<path d="M14.24 5.76022C13.6842 5.20175 13.0235 4.75874 12.2958 4.45668C11.5681 4.15462 10.7879 3.99949 10 4.00022V10.0002L5.76 14.2402C6.3093 14.8297 6.9717 15.3025 7.7077 15.6305C8.44369 15.9584 9.2382 16.1347 10.0438 16.149C10.8494 16.1632 11.6497 16.015 12.3968 15.7132C13.1439 15.4114 13.8226 14.9623 14.3923 14.3925C14.9621 13.8228 15.4112 13.1441 15.713 12.397C16.0148 11.6499 16.163 10.8497 16.1487 10.044C16.1345 9.23841 15.9582 8.44391 15.6303 7.70791C15.3023 6.97192 14.8295 6.30951 14.24 5.76022ZM10 0.000218623C8.02219 0.000218623 6.08879 0.586708 4.4443 1.68552C2.79981 2.78434 1.51809 4.34612 0.761209 6.17338C0.00433284 8.00064 -0.193701 10.0113 0.192152 11.9511C0.578004 13.8909 1.53041 15.6728 2.92894 17.0713C4.32746 18.4698 6.10929 19.4222 8.0491 19.8081C9.98891 20.1939 11.9996 19.9959 13.8268 19.239C15.6541 18.4821 17.2159 17.2004 18.3147 15.5559C19.4135 13.9114 20 11.978 20 10.0002C19.992 8.75463 19.76 7.52064 19.315 6.35722C18.593 4.47606 17.3146 2.85977 15.6503 1.72396C13.986 0.588157 12.0149 -0.0131642 10 0.000218623ZM10 18.0002C8.41775 18.0002 6.87104 17.531 5.55544 16.652C4.23985 15.7729 3.21447 14.5235 2.60897 13.0617C2.00347 11.5999 1.84504 9.99134 2.15372 8.4395C2.4624 6.88765 3.22433 5.46218 4.34315 4.34336C5.46197 3.22454 6.88743 2.46262 8.43928 2.15394C9.99113 1.84525 11.5997 2.00368 13.0615 2.60918C14.5233 3.21468 15.7727 4.24006 16.6518 5.55566C17.5308 6.87125 18 8.41797 18 10.0002C18 12.122 17.1572 14.1568 15.6569 15.6571C14.1566 17.1574 12.1217 18.0002 10 18.0002Z" fill="currentColor"/>
</svg>
