<svg  viewBox="0 0 18 20" fill="none" xmlns="http://www.w3.org/2000/svg">
<path d="M16.5 1.5L15 0L13.5 1.5L12 0L10.5 1.5L9 0L7.5 1.5L6 0L4.5 1.5L3 0V14H0V17C0 17.7956 0.316053 18.5587 0.878662 19.1213C1.44127 19.6839 2.20435 20 3 20H15C15.7956 20 16.5587 19.6839 17.1213 19.1213C17.6839 18.5587 18 17.7956 18 17V0L16.5 1.5ZM12 18H3C2.73478 18 2.48044 17.8946 2.29291 17.7071C2.10537 17.5196 2 17.2652 2 17V16H12V18ZM16 17C16 17.2652 15.8946 17.5196 15.7071 17.7071C15.5196 17.8946 15.2652 18 15 18C14.7348 18 14.4804 17.8946 14.2929 17.7071C14.1054 17.5196 14 17.2652 14 17V14H5V3H16V17Z" fill="currentColor"/>
<path d="M12 5H6V7H12V5Z" fill="currentColor"/>
<path d="M15 5H13V7H15V5Z" fill="currentColor"/>
<path d="M12 8H6V10H12V8Z" fill="currentColor"/>
<path d="M15 8H13V10H15V8Z" fill="currentColor"/>
</svg>
