<svg viewBox="0 0 20 20" fill="none" xmlns="http://www.w3.org/2000/svg">
<path d="M0 15V13.604C0 12.9793 0.316 12.4723 0.948 12.083C1.58 11.6943 2.403 11.5 3.417 11.5C3.58367 11.5 3.74333 11.5033 3.896 11.51C4.04867 11.5173 4.19433 11.5347 4.333 11.562C4.125 11.868 3.962 12.1947 3.844 12.542C3.726 12.8887 3.667 13.2567 3.667 13.646V15H0ZM5 15V13.646C5 12.7433 5.46167 12.014 6.385 11.458C7.309 10.9027 8.514 10.625 10 10.625C11.5 10.625 12.7083 10.9027 13.625 11.458C14.5417 12.014 15 12.7433 15 13.646V15H5ZM16.333 15V13.646C16.333 13.2567 16.2777 12.8887 16.167 12.542C16.0557 12.1947 15.896 11.868 15.688 11.562C15.8267 11.5347 15.9723 11.5173 16.125 11.51C16.2777 11.5033 16.4303 11.5 16.583 11.5C17.611 11.5 18.4373 11.6943 19.062 12.083C19.6873 12.4723 20 12.9793 20 13.604V15H16.333ZM10 12.375C9.292 12.375 8.64967 12.4617 8.073 12.635C7.49633 12.809 7.111 13.014 6.917 13.25H13.083C12.889 13.014 12.5073 12.809 11.938 12.635C11.368 12.4617 10.722 12.375 10 12.375ZM3.375 10.917C2.889 10.917 2.47567 10.7467 2.135 10.406C1.795 10.066 1.625 9.653 1.625 9.167C1.625 8.681 1.795 8.26767 2.135 7.927C2.47567 7.587 2.889 7.417 3.375 7.417C3.861 7.417 4.27433 7.587 4.615 7.927C4.955 8.26767 5.125 8.681 5.125 9.167C5.125 9.653 4.955 10.066 4.615 10.406C4.27433 10.7467 3.861 10.917 3.375 10.917ZM16.625 10.917C16.139 10.917 15.7257 10.7467 15.385 10.406C15.045 10.066 14.875 9.653 14.875 9.167C14.875 8.681 15.045 8.26767 15.385 7.927C15.7257 7.587 16.139 7.417 16.625 7.417C17.111 7.417 17.5243 7.587 17.865 7.927C18.205 8.26767 18.375 8.681 18.375 9.167C18.375 9.653 18.205 10.066 17.865 10.406C17.5243 10.7467 17.111 10.917 16.625 10.917ZM10 10C9.30533 10 8.715 9.757 8.229 9.271C7.743 8.785 7.5 8.19467 7.5 7.5C7.5 6.792 7.743 6.19833 8.229 5.719C8.715 5.23967 9.30533 5 10 5C10.708 5 11.3017 5.23967 11.781 5.719C12.2603 6.19833 12.5 6.792 12.5 7.5C12.5 8.19467 12.2603 8.785 11.781 9.271C11.3017 9.757 10.708 10 10 10ZM10 6.75C9.80533 6.75 9.63167 6.823 9.479 6.969C9.32633 7.115 9.25 7.292 9.25 7.5C9.25 7.69467 9.32633 7.86833 9.479 8.021C9.63167 8.17367 9.81233 8.25 10.021 8.25C10.215 8.25 10.385 8.17367 10.531 8.021C10.677 7.86833 10.75 7.68767 10.75 7.479C10.75 7.285 10.677 7.115 10.531 6.969C10.385 6.823 10.208 6.75 10 6.75Z" fill="currentColor"/>
</svg>
