<svg viewBox="0 0 24 24" fill="none" xmlns="http://www.w3.org/2000/svg">
<path d="M7 14C7.28333 14 7.521 13.904 7.713 13.712C7.90433 13.5207 8 13.2833 8 13C8 12.7167 7.90433 12.479 7.713 12.287C7.521 12.0957 7.28333 12 7 12C6.71667 12 6.479 12.0957 6.287 12.287C6.09567 12.479 6 12.7167 6 13C6 13.2833 6.09567 13.5207 6.287 13.712C6.479 13.904 6.71667 14 7 14ZM7 10C7.28333 10 7.521 9.904 7.713 9.712C7.90433 9.52067 8 9.28333 8 9C8 8.71667 7.90433 8.479 7.713 8.287C7.521 8.09567 7.28333 8 7 8C6.71667 8 6.479 8.09567 6.287 8.287C6.09567 8.479 6 8.71667 6 9C6 9.28333 6.09567 9.52067 6.287 9.712C6.479 9.904 6.71667 10 7 10ZM9 14H18V12H9V14ZM9 10H18V8H9V10ZM8 21V19H4C3.45 19 2.97933 18.8043 2.588 18.413C2.196 18.021 2 17.55 2 17V5C2 4.45 2.196 3.979 2.588 3.587C2.97933 3.19567 3.45 3 4 3H20C20.55 3 21.021 3.19567 21.413 3.587C21.8043 3.979 22 4.45 22 5V17C22 17.55 21.8043 18.021 21.413 18.413C21.021 18.8043 20.55 19 20 19H16V21H8ZM4 17H20V5H4V17ZM4 17V5V17Z" fill="currentColor"/>
</svg>
