<svg viewBox="0 0 20 20" fill="none" xmlns="http://www.w3.org/2000/svg">
<path d="M7.229 18.5L5.667 15.917L2.729 15.25L3 12.25L1 10L3 7.75L2.729 4.75L5.667 4.083L7.229 1.5L10 2.688L12.771 1.5L14.333 4.083L17.271 4.75L17 7.75L19 10L17 12.25L17.271 15.25L14.333 15.917L12.771 18.5L10 17.312L7.229 18.5ZM7.833 16.604L10 15.688L12.167 16.604L13.375 14.583L15.667 14.062L15.458 11.75L17 10L15.458 8.25L15.667 5.938L13.375 5.417L12.167 3.396L10 4.312L7.833 3.396L6.625 5.417L4.333 5.917L4.542 8.25L3 10L4.562 11.75L4.333 14.083L6.625 14.604L7.833 16.604ZM8.938 13L13.896 8.062L12.833 7L8.938 10.875L7.167 9.125L6.104 10.188L8.938 13Z" fill="#016273"/>
</svg>
